PathFileType	4	(X/Y/Z)	1_Data\ik.trc
DataRate	CameraRate	NumFrames	NumMarkers	Units	OrigDataRate	OrigDataStartFrame	OrigNumFrames
120.000000	120.000000	4	54	mm	120.000000	32	131
Frame#	Time	Sternum			Neck			RShoulder			LShoulder			Xiphoid			Thoracic			RAsis			LAsis			RPsis			LPsis			Lumbar			RElbow			RWrist			RRadius			RUlna			LElbow			LWrist			LUlna			LRadius			LThighSuperior			LThighInferior			LThighLateral			LPatella			LShankSuperior			LShankInferior			LShankLateral			RThighSuperior			RThighInferior			RThighLateral			RPatella			RShankSuperior			RShankInferior			RShankLateral			RHeel			RToe			RMidfootMedial			RMidfootLateral			RHindfoot			RMidfootSuperior			RToeMedial			RToeLateral			LHeel			LToe			LMidfootMedial			LMidfootLateral			LHindfoot			LMidfootSuperior			LToeMedial			LToeLateral			Oglobal			Sacral			Xglobal			Yglobal			Zglobal			
		X1	Y1	Z1	X2	Y2	Z2	X3	Y3	Z3	X4	Y4	Z4	X5	Y5	Z5	X6	Y6	Z6	X7	Y7	Z7	X8	Y8	Z8	X9	Y9	Z9	X10	Y10	Z10	X11	Y11	Z11	X12	Y12	Z12	X13	Y13	Z13	X14	Y14	Z14	X15	Y15	Z15	X16	Y16	Z16	X17	Y17	Z17	X18	Y18	Z18	X19	Y19	Z19	X20	Y20	Z20	X21	Y21	Z21	X22	Y22	Z22	X23	Y23	Z23	X24	Y24	Z24	X25	Y25	Z25	X26	Y26	Z26	X27	Y27	Z27	X28	Y28	Z28	X29	Y29	Z29	X30	Y30	Z30	X31	Y31	Z31	X32	Y32	Z32	X33	Y33	Z33	X34	Y34	Z34	X35	Y35	Z35	X36	Y36	Z36	X37	Y37	Z37	X38	Y38	Z38	X39	Y39	Z39	X40	Y40	Z40	X41	Y41	Z41	X42	Y42	Z42	X43	Y43	Z43	X44	Y44	Z44	X45	Y45	Z45	X46	Y46	Z46	X47	Y47	Z47	X48	Y48	Z48	X49	Y49	Z49	X50	Y50	Z50	X51	Y51	Z51	X52	Y52	Z52	X53	Y53	Z53	X54	Y54	Z54	

33	0.2666666666666667	359.9102172851562	1451.400512695312	94.32842254638668	195.9833984375	1551.117797851562	90.69101715087884	238.2324981689453	1539.411865234375	254.4627075195312	231.4589233398438	1537.151000976562	-47.718246459961	392.7868957519531	1293.84521484375	106.4219818115234	115.7924270629883	1333.337890625	100.6646194458007	300.4871826171874	1025.380493164062	249.0419158935547	322.7156982421875	1025.150634765625	-26.74123573303225	117.4605255126953	1052.553100585938	154.930435180664	119.7156143188477	1044.751953125	51.22061538696284	119.004997253418	1118.138305664062	88.93099975585932	198.8975372314453	1211.36767578125	372.4598999023437	330.8657226562499	973.0812377929688	406.4093017578125	348.6155395507812	967.4208984375	356.9908447265625	289.9779357910156	954.3963623046875	412.8566589355469	207.7384490966797	1196.048461914062	-158.1358795166016	320.2450866699219	958.0999145507812	-213.0958404541016	279.8391723632812	944.2440795898438	-193.6153106689453	354.9718322753906	957.3897094726562	-177.9574737548828	265.6129150390625	848.370361328125	-81.94680786132815	309.6638793945312	620.4729614257812	-43.30070495605469	376.1970520019531	729.5455322265625	-1.086789608001708	392.4735412597656	540.9391479492188	26.80829429626467	313.2112121582031	381.8293151855469	-43.59528350830077	280.9028625488281	184.4006805419922	-7.167838573455787	334.9082946777344	277.364501953125	25.6796569824219	278.0187988281249	832.6119995117188	298.9656982421875	341.4092407226562	607.452880859375	302.7496643066406	393.2097778320312	770.012451171875	250.8514862060547	428.4599609374999	517.6367797851562	261.6082153320312	284.4497985839843	485.857421875	313.6958618164062	133.6773986816406	287.2235412597656	266.1164245605469	257.9565124511718	353.2145690917969	234.8165588378906	1.084352493286108	250.4375	203.4772186279297	231.9262542724609	38.73740386962892	229.8725128173828	148.8849487304687	84.71170806884767	174.6580963134766	136.3682403564453	85.1437454223633	289.9317932128906	98.42144775390622	119.3142700195313	278.4981384277344	154.835708618164	155.9532470703125	225.3229217529297	183.8870086669922	60.20214462280275	179.6978149414063	179.2412109375	59.89382171630861	283.0749816894531	191.29345703125	64.96134948730469	51.25076293945314	501.1367492675781	62.81661987304688	8.947007179260313	407.0608825683594	37.2834587097168	70.89104461669928	397.0417175292969	33.00243377685547	-45.37870407104487	342.94775390625	30.45205497741699	-31.55621719360348	378.1558532714844	97.83486175537109	21.38789367675785	448.6018676757812	39.0616569519043	62.99967193603521	440.7522888183594	43.87773895263672	-40.60838699340815	0	0	0	118.5880661010742	1048.652587890625	103.0755310058593	-200	0	-2.449293598294706e-14	-2.449293598294706e-14	1.224646799147353e-14	200	1.499759782661858e-30	200	-1.224646799147353e-14	
34	0.2750000000000001	367.8837585449219	1452.191284179688	93.61701202392574	204.1462097167969	1552.058837890625	89.93982696533196	246.1856994628906	1540.0986328125	253.7384338378906	239.8511199951172	1538.253173828125	-48.38357543945319	400.6635437011719	1294.5146484375	105.5676651000976	123.7482528686523	1334.28466796875	99.79706573486321	308.0967712402343	1026.2587890625	248.4684143066406	330.30419921875	1025.723022460938	-27.35321426391604	125.137336730957	1053.727416992188	154.3141174316406	127.3952407836914	1045.769775390625	50.7306632995605	126.7867889404297	1119.224365234375	88.26620483398432	204.1167907714843	1212.29248046875	371.1824035644531	331.9861145019531	971.9995727539062	405.722412109375	349.6306762695312	966.0230102539062	356.3747863769531	290.6715393066406	953.8802490234375	411.7526550292969	218.842758178711	1196.981689453125	-159.0946350097657	336.592041015625	961.179931640625	-213.0778961181641	295.9548034667969	946.6255493164062	-193.9289093017578	371.2200622558594	961.2786254882812	-177.9162902832031	272.0219421386719	848.363525390625	-82.79077148437503	313.4526672363281	620.2789306640625	-43.21411514282227	380.929443359375	728.9908447265625	-0.9031407833099345	394.941650390625	540.053466796875	27.07537078857424	314.7871398925781	381.6079406738281	-43.29543685913085	281.5162048339844	184.4302978515625	-7.113346099853493	335.9126586914062	277.0685424804688	26.01586151123049	286.3579101562499	833.7314453125	298.3607482910156	353.5616760253906	609.5634765625	301.8788757324219	403.1705932617187	772.885498046875	250.6715393066406	442.2700500488281	521.8703002929688	260.8203430175781	299.6190490722656	485.5050354003906	312.1468200683594	154.7951354980468	282.5797729492188	265.0167541503906	276.4503784179687	352.7870483398438	233.4455261230469	22.87767028808591	240.8928985595703	202.2376098632812	263.9352416992188	39.77603149414064	229.2554626464844	177.6751098632812	81.69689941406251	173.2138977050782	165.3135223388672	81.58728027343751	288.6421813964844	125.9460296630859	113.9247741699219	277.2634887695312	180.8179779052734	152.7840423583984	224.3649139404297	214.8937072753906	58.58536529541017	178.9847869873047	210.1556549072265	58.26165771484376	282.3576965332031	191.3205413818359	65.04206848144531	51.24757385253908	501.2789306640625	62.64103317260742	8.993023872375547	407.13916015625	37.32653045654298	70.66472625732428	397.0713500976562	32.94464111328125	-45.41342544555659	342.9515991210938	30.48162078857422	-31.52509307861324	378.4115905761719	97.830322265625	21.93526077270512	448.5845031738281	38.9974479675293	62.93912887573248	440.9691467285156	43.79202651977539	-40.6874046325683	0	0	0	126.2662887573242	1049.748657226562	102.5223846435546	-200	0	-2.449293598294706e-14	-2.449293598294706e-14	1.224646799147353e-14	200	1.499759782661858e-30	200	-1.224646799147353e-14	
35	0.2833333333333334	375.9954223632812	1452.9189453125	93.17900085449214	212.3548278808594	1552.858032226562	89.16755676269524	254.1864929199218	1540.688232421875	253.0859680175781	248.0339660644531	1539.265502929688	-49.11853408813483	408.6364440917969	1295.113159179688	104.8402328491211	131.7395935058594	1335.154052734375	98.98600769042962	315.7458190917968	1027.192504882812	247.9922943115234	338.0267944335938	1026.428955078125	-28.03509140014651	132.8192291259765	1054.676513671875	153.7778015136718	135.1685180664062	1046.68408203125	50.12661743164058	134.5360107421875	1120.148315429688	87.57542419433588	209.124038696289	1213.161865234375	369.8082885742187	333.1672058105468	970.9462890625	405.0248107910156	350.9702148437499	964.6973266601562	355.7309875488281	291.7863769531249	953.5091552734375	411.1195678710938	229.9246520996094	1197.663696289062	-160.0855865478516	352.7146301269531	964.2099609375	-212.7901153564453	312.2773132324219	949.0435180664062	-194.1296081542969	386.8820495605469	964.9439086914062	-177.3380432128906	278.4569396972656	848.2710571289062	-83.70703887939456	316.9667053222656	620.4364624023438	-43.15494155883789	385.6190490722656	728.40625	-0.3736474215984318	397.1646728515625	539.1743774414062	27.52203750610353	318.0220031738281	381.7831115722656	-43.87864303588866	282.0387573242188	184.4953918457031	-7.107931137084938	336.7711791992188	276.6404724121094	26.08096313476565	294.5632629394531	834.8404541015625	297.8597717285156	365.5148925781249	611.6176147460938	300.8994445800781	412.4921569824218	775.733154296875	249.9964904785156	455.9983520507812	525.9298095703125	259.8330993652344	314.4026794433593	485.7245788574219	312.1286010742188	176.3087005615234	277.8178100585938	264.010986328125	295.5487365722656	352.1881103515625	232.0406494140625	45.57892227172849	230.8423767089844	201.3161468505859	295.0232543945312	40.3712730407715	228.209945678711	207.1127624511718	78.60664367675783	171.98681640625	194.8358459472656	77.89124298095705	287.4178161621094	154.1358642578125	108.5768127441406	276.220703125	207.1999816894531	149.7545013427734	223.1514739990235	245.3119049072265	57.07506179809572	177.8535308837891	240.4208831787109	56.57229232788087	281.2185974121094	191.346923828125	65.03316497802734	51.31853103637697	501.3156433105469	62.49528121948242	8.898875236511289	407.4157104492188	37.52104568481446	70.88423156738287	397.1283874511719	32.90046310424805	-45.384838104248	342.9664916992188	30.45535278320312	-31.4743556976318	378.3963623046875	97.67556762695312	22.06200599670414	448.7558898925781	39.07962799072266	63.07527542114263	440.8137512207031	43.62178802490234	-40.53810501098627	0	0	0	133.9938812255859	1050.680297851562	101.9522094726562	-200	0	-2.449293598294706e-14	-2.449293598294706e-14	1.224646799147353e-14	200	1.499759782661858e-30	200	-1.224646799147353e-14	
36	0.2916666666666667	384.0475769042969	1453.527954101562	92.44315338134761	220.6006317138672	1553.580810546875	88.42548370361321	262.1407775878906	1541.162475585938	252.4764709472656	256.3851013183594	1540.092529296875	-49.78068923950202	416.6963500976562	1295.815185546875	104.0689163208008	139.6500091552734	1335.994262695312	98.15064239501946	323.1610107421874	1027.79443359375	247.3549194335937	345.7349548339844	1027.001342773438	-28.39905738830569	140.3385925292968	1055.50048828125	152.9984893798828	142.8426055908203	1047.573974609375	49.59130859374995	142.2538299560547	1121.00390625	86.85610961914057	214.2846069335937	1213.83251953125	368.5877075195312	334.3123779296874	969.873046875	404.20703125	351.2893066406249	962.7671508789062	354.3752746582031	292.4836120605468	953.151123046875	410.4689636230469	240.8606414794922	1198.355102539062	-160.9183197021485	368.50634765625	967.322998046875	-212.9137268066406	328.2667846679688	951.0414428710938	-193.9754791259766	402.5885620117188	968.6013793945312	-176.7194366455078	284.9187622070312	848.1000366210938	-84.70024108886722	320.424560546875	620.6827392578125	-43.14410400390624	390.2626953125	727.7891235351562	0.06360897421837176	399.7152404785156	538.6505737304688	28.33521080017092	319.2107543945312	381.5317993164062	-43.11464309692381	283.4608459472656	183.8999481201172	-6.558164119720436	338.0745239257812	276.7139892578125	26.57836723327639	302.6770935058593	835.9412841796875	297.4547729492188	377.2840881347656	613.430419921875	299.9577941894531	422.1445312499999	778.5470581054688	249.6813049316406	469.4699401855468	529.861572265625	258.694580078125	329.5479431152343	485.3208312988281	311.2804565429688	198.1566009521484	272.7855834960938	263.0809020996094	314.2146301269531	351.5426330566406	230.7651824951172	68.7377014160156	220.3041381835938	200.322265625	326.3051147460938	41.03573608398439	227.2792358398438	237.0008544921875	75.36511993408205	171.1808776855469	224.8187408447265	74.27247619628908	286.5722045898438	182.6954193115234	102.9516296386719	275.2557983398438	233.9116821289062	146.58349609375	222.1478118896485	275.9005126953125	55.55294799804689	176.9341125488282	271.0938720703124	54.96561431884767	280.3027038574219	191.3249816894531	64.98101806640625	51.31270980834962	501.3391723632812	62.33734512329102	8.886205673217832	407.1257629394531	36.94201660156251	71.07449340820318	397.133544921875	32.9058952331543	-45.35226440429683	342.9561462402344	30.39982795715332	-31.41689300537105	378.4451599121094	97.56108856201172	22.04929924011234	448.8311462402344	38.6600456237793	62.99899291992193	440.8157653808594	43.63364791870117	-40.58892822265619	0	0	0	141.5905914306641	1051.537231445312	101.2948989868163	-200	0	-2.449293598294706e-14	-2.449293598294706e-14	1.224646799147353e-14	200	1.499759782661858e-30	200	-1.224646799147353e-14	
